Coordinates
version=1
nRows=5
nColumns=63
inDegrees=yes

Units are S.I. units (second, meters, Newtons, ...)
If the header above contains a line with 'inDegrees', this indicates whether rotational values are in degrees (yes) or radians (no).

endheader
time	pelvis_tilt	pelvis_list	pelvis_rotation	pelvis_tx	pelvis_ty	pelvis_tz	hip_flexion_r	hip_adduction_r	hip_rotation_r	knee_angle_r	knee_angle_r_beta	ankle_angle_r	subtalar_angle_r	mtp_angle_r	hip_flexion_l	hip_adduction_l	hip_rotation_l	knee_angle_l	knee_angle_l_beta	ankle_angle_l	subtalar_angle_l	mtp_angle_l	L5_S1_Flex_Ext	L5_S1_Lat_Bending	L5_S1_axial_rotation	L4_L5_Flex_Ext	L4_L5_Lat_Bending	L4_L5_axial_rotation	L3_L4_Flex_Ext	L3_L4_Lat_Bending	L3_L4_axial_rotation	L2_L3_Flex_Ext	L2_L3_Lat_Bending	L2_L3_axial_rotation	L1_L2_Flex_Ext	L1_L2_Lat_Bending	L1_L2_axial_rotation	L1_T12_Flex_Ext	L1_T12_Lat_Bending	L1_T12_axial_rotation	Abs_r3	Abs_r2	Abs_r1	Abs_t1	Abs_t2	neck_flexion	neck_bending	neck_rotation	arm_flex_r	arm_add_r	arm_rot_r	elbow_flex_r	pro_sup_r	wrist_flex_r	wrist_dev_r	arm_flex_l	arm_add_l	arm_rot_l	elbow_flex_l	pro_sup_l	wrist_flex_l	wrist_dev_l
      1.81355932	     -4.74985066	     -8.55551159	     81.22641269	      0.20353382	      0.85523393	      0.66747448	      8.86276912	     -7.95816633	     -8.40624912	      9.60768233	      0.16768569	     25.64397026	     15.99156547	      0.00000000	      4.03549728	      3.95098169	     -4.86291571	      6.35671314	      0.11094557	     15.18060754	     -8.04301867	      0.00000000	      0.02002664	     -0.67534111	     -0.30208056	      0.03719147	     -0.89820367	     -0.32096060	      0.03290176	     -1.64202437	     -0.32096060	      0.02288844	     -1.64202437	     -0.26432049	      0.01859674	     -1.37715558	     -0.24544046	      0.01144322	     -1.04610337	     -0.22656042	      0.14304827	     -7.63959366	     -1.68008146	      0.00000000	      0.00000000	     11.06805288	      5.97562108	    -14.02261178	     94.47152902	    -21.82441550	    108.36125626	     13.50029005	     16.57196493	     -8.85175471	     30.91134226	    120.81925516	    -27.15771536	     49.07534766	    106.74598634	     88.47869843	     21.56442366	     33.99573422
      1.83050847	     -4.79893911	     -8.86036710	     80.78156156	      0.20390143	      0.85498285	      0.66723377	      9.18874683	     -7.89376805	     -7.99154836	      9.37230133	      0.16357752	     25.66720521	     16.01462502	      0.00000000	      4.31848115	      3.93467135	     -5.17150296	      6.33599112	      0.11058391	     15.30612220	     -8.07631011	      0.00000000	      0.02088368	     -0.66412733	     -0.39865367	      0.03878308	     -0.88328935	     -0.42356953	      0.03430980	     -1.61475918	     -0.42356953	      0.02386796	     -1.61475918	     -0.34882196	      0.01939259	     -1.35428845	     -0.32390611	      0.01193293	     -1.02873323	     -0.29899025	      0.14917004	     -7.51274115	     -2.21719213	      0.00000000	      0.00000000	     10.76195989	      3.28875414	    -14.30303914	     96.08250292	    -21.65511232	    107.80457627	     14.01389235	     15.78243167	     -9.13184730	     31.24247516	    123.94766127	    -27.77043916	     50.59295981	    106.33853433	     88.97825539	     23.20545580	     34.31912716
      1.84745763	     -5.01979560	     -8.99581979	     80.40778034	      0.20431197	      0.85485844	      0.66766519	      9.47413568	     -8.01563045	     -7.18015515	      9.30666857	      0.16243201	     25.90133861	     15.50783516	      0.00000000	      4.51872478	      4.08776533	     -5.75134922	      6.36052162	      0.11101204	     15.40048835	     -7.62928956	      0.00000000	      0.00078955	     -0.67859821	     -0.49182799	      0.00146628	     -0.90253561	     -0.52256724	      0.00129716	     -1.64994368	     -0.52256724	      0.00090238	     -1.64994368	     -0.43034949	      0.00073318	     -1.38379746	     -0.39961024	      0.00045115	     -1.05114862	     -0.36887099	      0.00563971	     -7.67643863	     -2.73539973	      0.00000000	      0.00000000	     10.44524538	      0.91269473	    -14.89862169	     97.01357655	    -21.44677098	    104.47390853	     13.94070975	     11.58198943	    -10.81919156	     30.83231726	    126.26835840	    -27.72117395	     51.06709434	    105.71342884	     89.20692378	     26.64889542	     34.43841816
      1.86440678	     -4.96617776	     -9.11784596	     80.08575871	      0.20413462	      0.85468990	      0.66789408	      9.61126528	     -7.87828513	     -6.43293873	      9.06104769	      0.15814512	     25.93190319	     15.11030314	      0.00000000	      4.64218679	      4.00772646	     -6.22365900	      6.36190696	      0.11103622	     15.56343486	     -7.33537028	      0.00000000	     -0.01102093	     -0.65061592	     -0.51711455	     -0.02046697	     -0.86531917	     -0.54943421	     -0.01810629	     -1.58190754	     -0.54943421	     -0.01259582	     -1.58190754	     -0.45247523	     -0.01023404	     -1.32673598	     -0.42015557	     -0.00629736	     -1.00780406	     -0.38783591	     -0.07872141	     -7.35989739	     -2.87603599	      0.00000000	      0.00000000	      9.64014556	     -1.28987937	    -15.27633980	     97.49014646	    -21.69382257	     98.01041396	     13.83159764	      6.31571416	    -12.24085850	     29.48409864	    127.17910531	    -27.41740524	     50.50021134	    105.50762817	     89.22927209	     28.09026857	     34.46240902
      1.88135593	     -4.88770216	     -9.15188839	     79.81987728	      0.20359013	      0.85402298	      0.66837141	      9.67432768	     -7.74923805	     -5.60818073	      8.85503037	      0.15454944	     26.05449134	     14.59238921	      0.00000000	      4.71821714	      3.94803009	     -6.52122620	      6.41940715	      0.11203979	     15.80878985	     -7.33363807	      0.00000000	     -0.02871048	     -0.58060745	     -0.56673896	     -0.05331823	     -0.77220791	     -0.60216014	     -0.04716844	     -1.41168896	     -0.60216014	     -0.03281320	     -1.41168896	     -0.49589659	     -0.02666055	     -1.18397472	     -0.46047540	     -0.01640517	     -0.89936094	     -0.42505422	     -0.20507606	     -6.56794761	     -3.15203207	      0.00000000	      0.00000000	      9.20638721	     -4.07626405	    -13.39937102	     94.94849682	    -14.94398041	      3.21680200	      7.48346688	     69.24087459	    -12.87900421	     28.38782548	    127.32409958	    -28.05703582	     49.09048609	    106.21584833	     89.09724385	     28.52055079	     34.40062924
